# xmcd
#
# Track frame offsets:
#	150
#	17337
#	37283
#	57620
#	76172
#	90838
#	106379
#	125087
#	141923
#	154893
#
# Disc length: 2378 seconds
#
# Revision: 1
# Processed by: cddbd v1.4PL0 Copyright (c) Steve Scherf et al.
# Submitted via: audiograbber 1.80.04
#
DISCID=8009480a
DTITLE=Steve Vaus - I Still Believe
DYEAR=1998
DGENRE=Country
TTITLE0=Renegades
TTITLE1=I Still Believe
TTITLE2=The Prayer
TTITLE3=Anna's Song
TTITLE4=One By One
TTITLE5=Tea Party
TTITLE6=Life Goes On
TTITLE7=Change Of Heart
TTITLE8=Wrong's Not Right
TTITLE9=The Things That Make A Soldier Great
EXTD=Country/Christian/Patriotic
EXTT0=
EXTT1=
EXTT2=
EXTT3=
EXTT4=
EXTT5=
EXTT6=
EXTT7=
EXTT8=
EXTT9=
PLAYORDER=
